<svg width="48" height="48" viewBox="0 0 48 48" fill="none" xmlns="http://www.w3.org/2000/svg">
<g id="Rocket">
<g id="006---Starship">
<path id="Shape" d="M31.2042 8.91217L28.3904 6.09837C28.0807 5.78713 28.0807 5.2841 28.3904 4.97285L31.8084 1.55409C31.9646 1.39776 32.1792 1.31402 32.4001 1.32319L40.5766 1.58223L31.2042 8.91217Z" fill="#B85C38"/>
<path id="Shape_2" d="M46.4202 7.42499L46.6793 15.6016C46.6884 15.8224 46.6047 16.037 46.4484 16.1933L43.0296 19.6137C42.7184 19.9234 42.2153 19.9234 41.9041 19.6137L39.0903 16.7999L46.4202 7.42499Z" fill="#B85C38"/>
<path id="Shape_3" d="M14.8743 25.2413H6.19452C5.9831 25.2411 5.78031 25.3251 5.63093 25.4747L0.233402 30.8731C0.0839634 31.0224 0 31.225 0 31.4362C0 31.6475 0.0839634 31.8501 0.233402 31.9994L3.56858 35.3346L12.6621 44.4314L15.9973 47.7666C16.1466 47.9161 16.3492 48 16.5605 48C16.7717 48 16.9743 47.9161 17.1236 47.7666L22.5245 42.3724C22.6741 42.223 22.7581 42.0202 22.7579 41.8088V33.1258L14.8743 25.2413Z" fill="#B85C38"/>
<path id="Shape_4" d="M43.0263 12.8523L37.9863 17.9006L36.8111 19.0675L32.3504 23.5282L31.1835 24.7034L26.7228 29.1641L25.5476 30.331L21.0869 34.7917L19.92 35.9669L15.4593 40.4275L14.2924 41.5945L12.058 43.8289L4.17105 35.942L6.40554 33.7158V33.7075L7.57244 32.5406L12.0331 28.0799L13.2083 26.913L17.669 22.4523L18.8359 21.2772L23.2966 16.8165L24.4718 15.6496L28.9325 11.1889L30.0994 10.0137L35.1477 4.97369L43.0263 12.8523Z" fill="#ECF0F1"/>
<path id="Shape_5" d="M43.0296 12.854C46.1265 9.75715 47.5085 4.65093 47.9778 1.85286C48.0635 1.34587 47.8984 0.828759 47.5348 0.465176C47.1713 0.101594 46.6541 -0.0634651 46.1472 0.0222345C43.3491 0.491477 38.2429 1.87355 35.146 4.97038L43.0296 12.854Z" fill="#95A5A5"/>
<g id="Group">
<path id="Shape_6" d="M31.7876 12.8771C31.4649 13.198 30.9435 13.198 30.6207 12.8771L28.9325 11.1888L30.0994 10.0137L31.7876 11.702C32.1104 12.0272 32.1104 12.5519 31.7876 12.8771Z" fill="#D1D4D1"/>
<path id="Shape_7" d="M26.16 18.5048C26.0056 18.6634 25.7938 18.7529 25.5724 18.7531C25.3515 18.7512 25.1402 18.662 24.9848 18.5048L23.2966 16.8165L24.4717 15.6496L26.16 17.3379C26.4809 17.6607 26.4809 18.182 26.16 18.5048Z" fill="#D1D4D1"/>
<path id="Shape_8" d="M20.5242 24.1406C20.2014 24.4615 19.68 24.4615 19.3573 24.1406L17.669 22.4523L18.8359 21.2772L20.5242 22.9654C20.8469 23.2907 20.8469 23.8154 20.5242 24.1406Z" fill="#D1D4D1"/>
<path id="Shape_9" d="M14.8966 29.7682C14.7413 29.9245 14.5293 30.0112 14.309 30.0082C14.0911 30.011 13.8817 29.9242 13.7297 29.7682L12.0331 28.0799L13.2083 26.913L14.8966 28.6013C15.2174 28.9241 15.2174 29.4454 14.8966 29.7682Z" fill="#D1D4D1"/>
<path id="Shape_10" d="M9.26897 35.4041C9.11074 35.5559 8.90064 35.6417 8.68138 35.6441C8.46183 35.6432 8.25117 35.5572 8.0938 35.4041L6.40552 33.7075L7.57242 32.5406L9.26897 34.2289C9.59171 34.5542 9.59171 35.0789 9.26897 35.4041Z" fill="#D1D4D1"/>
<path id="Shape_11" d="M37.9863 17.9006L36.8111 19.0675L32.8718 15.1282C32.5965 14.8485 32.5518 14.4154 32.7642 14.0854C32.7977 14.042 32.8336 14.0006 32.8718 13.9613C33.1946 13.6404 33.7159 13.6404 34.0387 13.9613L37.9863 17.9006Z" fill="#D1D4D1"/>
<path id="Shape_12" d="M32.3504 23.5282L31.1835 24.7034L27.2442 20.7558C26.963 20.4274 26.9819 19.938 27.2876 19.6323C27.5932 19.3266 28.0827 19.3077 28.4111 19.5889L32.3504 23.5282Z" fill="#D1D4D1"/>
<path id="Shape_13" d="M26.7228 29.1641L25.5476 30.331L21.6083 26.3916C21.2838 26.0671 21.2838 25.541 21.6083 25.2165C21.9328 24.892 22.459 24.892 22.7835 25.2165L26.7228 29.1641Z" fill="#D1D4D1"/>
<path id="Shape_14" d="M21.0869 34.7917L19.92 35.9669L15.9807 32.0193C15.6995 31.6909 15.7184 31.2015 16.0241 30.8958C16.3298 30.5901 16.8193 30.5712 17.1476 30.8524L21.0869 34.7917Z" fill="#D1D4D1"/>
<path id="Shape_15" d="M15.4593 40.4275L14.2924 41.5944L10.3448 37.6551C10.0203 37.3306 10.0203 36.8045 10.3448 36.48C10.6693 36.1554 11.1955 36.1554 11.52 36.48L15.4593 40.4275Z" fill="#D1D4D1"/>
</g>
</g>
</g>
</svg>
