<svg width="48" height="48" viewBox="0 0 48 48" fill="none" xmlns="http://www.w3.org/2000/svg">
<g id="Rocket">
<g id="018---Soyuz-Space-Craft">
<path id="Rectangle-path" d="M18.6618 11.4624L8.33607 1.13663C7.70832 0.508888 6.69055 0.508888 6.0628 1.13663L1.13664 6.0628C0.508891 6.69054 0.508891 7.70832 1.13664 8.33606L11.4624 18.6618C12.0901 19.2895 13.1079 19.2895 13.7356 18.6618L18.6618 13.7356C19.2896 13.1079 19.2896 12.0901 18.6618 11.4624Z" fill="#E0C097"/>
<path id="Shape" d="M16.7678 15.6325L13.1353 12.0008L16.1674 8.96866L15.0307 7.83203L11.9986 10.8641L8.9352 7.80068L11.9673 4.76859L10.8307 3.63195L7.79856 6.66405L4.16761 3.03229L3.03098 4.16892L6.66193 7.80068L3.63064 10.8328L4.76728 11.9694L7.79856 8.93731L10.862 12.0008L7.82991 15.0328L8.96655 16.1695L11.9986 13.1374L15.6304 16.7691L16.7678 15.6325Z" fill="#E0C097"/>
<path id="Rectangle-path_2" d="M17.3982 14.9977L19.7986 17.398L17.3982 19.7984L14.9979 17.398L17.3982 14.9977Z" fill="#7F8C8D"/>
<path id="Rectangle-path_3" d="M29.3382 36.5472L39.6639 46.8729C40.2917 47.5006 41.3095 47.5006 41.9372 46.8729L46.8634 41.9467C47.4911 41.319 47.4911 40.3012 46.8634 39.6735L36.5376 29.3477C35.9099 28.72 34.8921 28.72 34.2644 29.3477L29.3382 34.2739C28.7105 34.9016 28.7105 35.9194 29.3382 36.5472Z" fill="#E0C097"/>
<path id="Shape_2" d="M44.9698 43.8345L41.3373 40.2019L44.3686 37.1706L43.2319 36.034L40.2006 39.0653L37.1372 36.0018L40.1693 32.9706L39.0326 31.8339L36.0006 34.8652L32.3688 31.2335L31.2322 32.3701L34.8639 36.0018L31.8318 39.0339L32.9685 40.1706L36.0006 37.1385L39.064 40.2019L36.0319 43.234L37.1685 44.3707L40.2006 41.3386L43.8324 44.9711L44.9698 43.8345Z" fill="#E0C097"/>
<path id="Rectangle-path_4" d="M30.5998 33.008L28.1995 30.6076L30.5998 28.2073L33.0002 30.6076L30.5998 33.008Z" fill="#7F8C8D"/>
<path id="Shape_3" d="M23.4003 35.4046L22.0901 38.4512C21.9814 38.7107 21.7501 38.8986 21.4738 38.952C21.1976 39.0053 20.9129 38.9169 20.7155 38.7164L9.28487 27.2858C9.08442 27.0883 8.99602 26.8037 9.04933 26.5275C9.10265 26.2512 9.29061 26.0199 9.55014 25.9112L12.5967 24.601L23.4003 35.4046Z" fill="#95A5A5"/>
<path id="Shape_4" d="M25.8038 33.0011L23.4003 35.4046L12.5967 24.6009L15.0002 22.1974L25.8038 33.0011Z" fill="#B85C38"/>
<path id="Shape_5" d="M32.9982 25.8067C31.2298 27.5752 28.0144 30.7825 25.8038 33.0011L15.0002 22.1975C17.2188 19.9789 20.4342 16.7715 22.2026 15.0111L27.5964 20.4049L32.9982 25.8067Z" fill="#547580"/>
<path id="Shape_6" d="M33.6011 25.2038L32.9982 25.8067L27.5964 20.4049L22.2026 15.0111C22.4277 14.778 22.6286 14.577 22.7975 14.4002C25.2009 12.0047 29.397 12.5996 29.397 12.5996L29.7909 12.6558L35.3454 18.2104L35.4017 18.6043C35.4017 18.6043 35.9965 22.8003 33.6011 25.2038Z" fill="#95A5A5"/>
<path id="Shape_7" d="M44.4047 8.40033C45.3433 11.1298 44.6449 14.1556 42.6049 16.1976C39.6234 19.1812 34.7877 19.1828 31.8041 16.2012C28.8205 13.2197 28.8189 8.38396 31.8005 5.40039C33.8425 3.36046 36.8682 2.66204 39.5977 3.60059L44.4047 8.40033Z" fill="#BDC3C7"/>
<path id="Oval" d="M37.2007 13.3464C38.6067 13.3464 39.7465 12.2066 39.7465 10.8006C39.7465 9.3946 38.6067 8.25482 37.2007 8.25482C35.7947 8.25482 34.6549 9.3946 34.6549 10.8006C34.6549 12.2066 35.7947 13.3464 37.2007 13.3464Z" fill="#95A5A5"/>
<path id="Shape_8" d="M46.2013 6.6005L44.4047 8.40031L39.601 3.60057L41.4008 1.79996C42.0637 1.1374 43.1381 1.1374 43.801 1.79996L46.2013 4.20023C46.8639 4.86316 46.8639 5.93758 46.2013 6.6005Z" fill="#95A5A5"/>
<path id="Oval_2" d="M24 26.3999C25.3247 26.3999 26.3987 25.326 26.3987 24.0013C26.3987 22.6765 25.3247 21.6026 24 21.6026C22.6753 21.6026 21.6013 22.6765 21.6013 24.0013C21.6013 25.326 22.6753 26.3999 24 26.3999Z" fill="#B85C38"/>
<path id="Shape_9" d="M11.7687 29.7697L6.30261 32.6635L10.3701 34.0139L7.6611 40.3402L13.9873 37.6312L15.3378 41.6987L18.2316 36.2325L11.7687 29.7697Z" fill="#F29C1F"/>
</g>
</g>
</svg>
