<svg width="48" height="43" viewBox="0 0 48 43" fill="none" xmlns="http://www.w3.org/2000/svg">
<g id="Rocket">
<g id="021---UFO">
<path id="Shape" d="M7.44827 16.5517C7.44827 7.41046 14.8587 0 24 0C33.1413 0 40.5517 7.41046 40.5517 16.5517H7.44827Z" fill="#90BAE1"/>
<path id="Shape_2" d="M24 20.6897H45.931C47.0737 20.6897 48 19.7634 48 18.6207C48 17.4781 47.0737 16.5518 45.931 16.5518H2.06897C0.926307 16.5518 0 17.4781 0 18.6207C0 19.7634 0.926307 20.6897 2.06897 20.6897H24Z" fill="#D25627"/>
<path id="Shape_3" d="M45.5172 20.6897L38.7964 27.4105C38.3307 27.8764 37.699 28.1381 37.0403 28.138H10.9597C10.301 28.1381 9.66929 27.8764 9.20359 27.4105L2.48276 20.6897H45.5172Z" fill="#B85C38"/>
<path id="Shape_4" d="M15.7241 28.1379H32.2758V30.6207C32.2758 31.0778 31.9053 31.4483 31.4483 31.4483H16.5517C16.0946 31.4483 15.7241 31.0778 15.7241 30.6207V28.1379Z" fill="#802F34"/>
<path id="Shape_5" d="M29.7931 31.4482C29.7931 31.4482 26.8966 42.2069 24 42.2069C21.1035 42.2069 18.2069 31.4482 18.2069 31.4482H29.7931Z" fill="#F0C419"/>
<path id="Shape_6" d="M21.6414 31.4482C22.2515 33.5692 23.0405 35.6345 24 37.622C24.9595 35.6345 25.7485 33.5692 26.3586 31.4482H21.6414Z" fill="#F29C1F"/>
<path id="Oval" d="M21.5877 8.42233C23.091 7.55437 23.7233 5.83519 23 4.58243C22.2767 3.32967 20.4717 3.01773 18.9684 3.88569C17.465 4.75365 16.8327 6.47284 17.556 7.7256C18.2793 8.97836 20.0844 9.2903 21.5877 8.42233Z" fill="#B0D3F0"/>
<path id="Oval_2" d="M14.069 13.2414C14.9831 13.2414 15.7241 12.5003 15.7241 11.5862C15.7241 10.6721 14.9831 9.93103 14.069 9.93103C13.1548 9.93103 12.4138 10.6721 12.4138 11.5862C12.4138 12.5003 13.1548 13.2414 14.069 13.2414Z" fill="#B0D3F0"/>
<g id="Group">
<path id="Shape_7" d="M20.6897 12.4138C21.6038 12.4138 22.3448 13.1549 22.3448 14.069V16.5517H19.0345V14.069C19.0345 13.1549 19.7755 12.4138 20.6897 12.4138Z" fill="#547580"/>
<path id="Shape_8" d="M27.3104 12.4138C28.2245 12.4138 28.9655 13.1549 28.9655 14.069V16.5517H25.6552V14.069C25.6552 13.1549 26.3962 12.4138 27.3104 12.4138Z" fill="#547580"/>
</g>
</g>
</g>
</svg>
