<svg width="48" height="48" viewBox="0 0 48 48" fill="none" xmlns="http://www.w3.org/2000/svg">
<g id="Rocket">
<g id="002---Stage-Separation">
<path id="Shape" d="M18.88 15.1084C11.5955 16.9454 5.0812 21.0451 0.273804 26.8181C-0.0334858 27.1776 -0.0872684 27.6893 0.138573 28.1048C0.364414 28.5203 0.8231 28.7535 1.29189 28.6912C3.72878 28.3702 6.19181 28.2956 8.64365 28.4685L18.88 15.1084Z" fill="#B85C38"/>
<path id="Shape_2" d="M32.8916 29.12C31.0546 36.4045 26.9549 42.9188 21.1819 47.7262C20.8224 48.0335 20.3107 48.0873 19.8951 47.8614C19.4796 47.6356 19.2464 47.1769 19.3088 46.7081C19.6298 44.2712 19.7044 41.8082 19.5314 39.3563L32.8916 29.12Z" fill="#B85C38"/>
<path id="Shape_3" d="M15.642 39.7023C15.642 39.7023 11.0523 44.292 4.62761 43.3724C3.70967 36.946 8.29935 32.3563 8.29935 32.3563L15.642 39.7023Z" fill="#F0C419"/>
<path id="Shape_4" d="M10.6393 34.6996C9.30072 36.2129 8.38182 38.0504 7.97406 40.0292C9.95416 39.6261 11.792 38.7053 13.3004 37.3607L10.6393 34.6996Z" fill="#F29C1F"/>
<path id="Shape_5" d="M32.1963 13.6028C31.1925 13.6022 30.2877 12.9974 29.9035 12.07C29.5194 11.1426 29.7313 10.0751 30.4407 9.36487C30.7641 9.04168 31.2883 9.04187 31.6115 9.36529C31.9347 9.68871 31.9345 10.2129 31.6111 10.5361C31.2974 10.8609 31.3019 11.3771 31.6212 11.6964C31.9404 12.0157 32.4567 12.0202 32.7815 11.7065L36.0551 8.43287C36.2615 8.21244 36.5716 8.12193 36.8642 8.19668C37.1567 8.27144 37.3854 8.49961 37.4608 8.79203C37.5361 9.08445 37.4463 9.39472 37.2263 9.6016L33.9527 12.8752C33.4874 13.3419 32.8553 13.6038 32.1963 13.6028Z" fill="#BDC3C7"/>
<path id="Shape_6" d="M36.8787 18.2852C35.8747 18.285 34.9697 17.6803 34.5853 16.7528C34.2009 15.8253 34.4128 14.7577 35.1223 14.0473L38.2212 10.95C38.546 10.6363 39.0623 10.6408 39.3815 10.9601C39.7008 11.2794 39.7053 11.7956 39.3916 12.1204L36.2935 15.2177C36.0843 15.4268 36.0025 15.7316 36.0789 16.0173C36.1554 16.303 36.3785 16.5263 36.6641 16.6029C36.9498 16.6796 37.2547 16.598 37.4639 16.3889C37.7873 16.0655 38.3117 16.0655 38.6351 16.3889C38.9585 16.7123 38.9585 17.2367 38.6351 17.5601C38.1694 18.0259 37.5373 18.2869 36.8787 18.2852Z" fill="#BDC3C7"/>
<path id="Shape_7" d="M37.1253 22.5562C37.3989 22.8261 37.4506 23.2488 37.2503 23.5767C36.332 25.0568 35.2897 26.4562 34.1348 27.76C26.6026 36.2764 19.1068 39.6717 17.1137 40.4696C16.8071 40.5924 16.4567 40.5193 16.2247 40.2842L7.71581 31.7753C7.48065 31.5433 7.40758 31.1929 7.5304 30.8863C8.32831 28.8931 11.7236 21.3965 20.24 13.8652C21.5438 12.7102 22.9432 11.668 24.4232 10.7496C24.7512 10.5493 25.1739 10.6011 25.4438 10.8746L37.1253 22.5562Z" fill="#ECF0F1"/>
<path id="Shape_8" d="M11.2609 31.4666C10.9766 31.4662 10.7123 31.3199 10.5611 31.0791C10.4099 30.8384 10.3928 30.5368 10.5159 30.2805C13.3132 24.7297 17.1766 19.7843 21.8854 15.7268C22.2283 15.424 22.7517 15.4564 23.0546 15.7992C23.3574 16.1421 23.325 16.6655 22.9822 16.9684C18.4377 20.8782 14.7084 25.6454 12.0075 30.9973C11.8696 31.2843 11.5793 31.4668 11.2609 31.4666Z" fill="white"/>
<path id="Shape_9" d="M44.7883 14.3527C44.4655 15.0562 44.1096 15.7681 43.7205 16.4799C43.5926 16.7052 43.3666 16.8576 43.1098 16.8917C42.853 16.9258 42.5951 16.8378 42.4128 16.6537L31.3462 5.58719C31.1622 5.40487 31.0741 5.14691 31.1082 4.89011C31.1424 4.63332 31.2948 4.40731 31.52 4.2794C32.2319 3.89037 32.9437 3.53446 33.6473 3.20337L44.7883 14.3527Z" fill="#B85C38"/>
<path id="Shape_10" d="M47.9999 0.844438C47.8371 5.51581 46.7453 10.1079 44.7883 14.3527L33.6473 3.20342C37.8936 1.25184 42.4851 0.163024 47.1556 0.00016919C47.3809 -0.0043833 47.5983 0.0831036 47.7576 0.242432C47.9169 0.401761 48.0044 0.619159 47.9999 0.844438Z" fill="#B85C38"/>
</g>
</g>
</svg>
