<svg width="48" height="49" viewBox="0 0 48 49" fill="none" xmlns="http://www.w3.org/2000/svg">
<g id="Rocket">
<g id="042---Command-Module">
<path id="Shape" d="M44.53 22.1549C44.49 22.2303 44.4398 22.3 44.3809 22.3619L39.8754 26.8675L21.1408 8.13291L25.6381 3.61905C25.7 3.5602 25.7697 3.51005 25.8451 3.46997L44.53 22.1549Z" fill="#2980BA"/>
<path id="Shape_2" d="M39.8754 26.8675L22.9215 43.8545C22.6123 44.1684 22.1902 44.3452 21.7496 44.3452C21.309 44.3452 20.8868 44.1684 20.5776 43.8545L4.17864 27.4638C3.86759 27.1531 3.69282 26.7315 3.69282 26.2919C3.69282 25.8523 3.86759 25.4306 4.17864 25.1199L21.1408 8.13293L39.8754 26.8675Z" fill="#3B97D3"/>
<path id="Shape_3" d="M8.27672 31.5553L5.34644 33.3169L2.42031 35.0736L0.399423 36.2862C0.181811 36.4178 0.0367799 36.6422 0.00606645 36.8947C-0.024647 37.1472 0.0623641 37.3998 0.242059 37.5798L10.455 47.7936C10.6351 47.9735 10.888 48.0606 11.1408 48.0297C11.3935 47.9988 11.618 47.8534 11.7495 47.6354L12.9662 45.6153L14.7228 42.6867L16.4803 39.7589L8.27672 31.5553Z" fill="#7F8C8D"/>
<path id="Shape_4" d="M13.5691 47.0506C13.3495 47.0506 13.1388 46.9633 12.9836 46.808L1.22765 35.052C0.913775 34.7271 0.918264 34.2105 1.23774 33.891C1.55722 33.5715 2.07379 33.5671 2.39877 33.8809L14.1547 45.6352C14.3915 45.872 14.4623 46.2282 14.3341 46.5377C14.206 46.8471 13.904 47.0489 13.5691 47.049V47.0506Z" fill="#95A5A5"/>
<path id="Shape_5" d="M15.3805 44.1767C15.1608 44.1767 14.9502 44.0894 14.7949 43.9341L4.1041 33.2408C3.79022 32.9158 3.79471 32.3992 4.11418 32.0797C4.43366 31.7603 4.95023 31.7558 5.27521 32.0697L15.966 42.7629C16.2028 42.9998 16.2736 43.356 16.1455 43.6654C16.0173 43.9749 15.7154 44.1767 15.3805 44.1767Z" fill="#95A5A5"/>
<path id="Shape_6" d="M47.288 8.51385L44.6046 21.9395C44.5885 22.014 44.5635 22.0863 44.53 22.1548L25.8451 3.46992C25.9137 3.43649 25.986 3.41146 26.0605 3.39538L39.4861 0.711914L47.288 8.51385Z" fill="#BDC3C7"/>
<path id="Shape_7" d="M22.9215 27.4638L17.0576 33.3194C16.7346 33.6405 16.2129 33.6405 15.8898 33.3194L5.93449 23.3641L7.69034 21.5999L8.86642 20.4321L10.0342 19.2643L11.202 18.0882L12.9579 16.3324L22.9215 26.2877C23.2445 26.6132 23.2445 27.1383 22.9215 27.4638Z" fill="#2980BA"/>
<path id="Shape_8" d="M19.4015 27.4638C19.0785 27.785 18.5567 27.785 18.2337 27.4638L10.0342 19.2643L11.202 18.0883L19.4015 26.2877C19.7245 26.6132 19.7245 27.1383 19.4015 27.4638Z" fill="#285680"/>
<path id="Shape_9" d="M17.0576 29.7994C16.9063 29.9578 16.6969 30.0476 16.4779 30.0479C16.2564 30.0477 16.0443 29.9581 15.8898 29.7994L7.69034 21.5999L8.86642 20.4321L17.0576 28.6316C17.2165 28.7843 17.3062 28.9952 17.3062 29.2155C17.3062 29.4359 17.2165 29.6467 17.0576 29.7994Z" fill="#285680"/>
<path id="Shape_10" d="M31.7007 35.0752L24.6773 42.0986L20.5776 37.9989C20.2565 37.6758 20.2565 37.1541 20.5776 36.8311L26.4332 30.9755C26.7562 30.6543 27.278 30.6543 27.601 30.9755L31.7007 35.0752Z" fill="#2980BA"/>
<g id="Group">
<path id="Shape_11" d="M29.9449 36.8311L28.7771 37.9989L26.4332 35.655C26.1518 35.3264 26.1707 34.8366 26.4767 34.5307C26.7826 34.2247 27.2724 34.2058 27.601 34.4872L29.9449 36.8311Z" fill="#285680"/>
<path id="Shape_12" d="M27.601 39.175L26.4332 40.3429L24.0893 37.999C23.853 37.7965 23.75 37.4787 23.8228 37.1762C23.8956 36.8736 24.1318 36.6374 24.4344 36.5646C24.7369 36.4918 25.0547 36.5948 25.2571 36.8312L27.601 39.175Z" fill="#285680"/>
<path id="Shape_13" d="M39.8721 23.0113C39.6523 23.0119 39.4415 22.9245 39.2865 22.7686L25.2306 8.71354C25.0153 8.50559 24.929 8.19765 25.0048 7.90808C25.0806 7.6185 25.3067 7.39236 25.5963 7.31656C25.8859 7.24077 26.1938 7.32712 26.4018 7.54242L40.4577 21.5975C40.6945 21.8344 40.7653 22.1905 40.6371 22.5C40.5089 22.8094 40.207 23.0112 39.8721 23.0113Z" fill="#285680"/>
</g>
<path id="Shape_14" d="M47.9838 5.05189L47.288 8.5139L39.4861 0.711964L42.9481 0.0162506C43.2208 -0.038064 43.5028 0.0455994 43.7018 0.239873L47.7601 4.2982C47.9544 4.49718 48.0381 4.77916 47.9838 5.05189Z" fill="#95A5A5"/>
<path id="Shape_15" d="M35.4593 1.51123L38.7647 4.8167C38.9756 5.02763 39.0568 5.33567 38.9772 5.62314C38.8977 5.91061 38.6697 6.1331 38.3804 6.20564L35.5694 6.90798C35.2871 6.97866 34.9884 6.89597 34.7826 6.69016L30.581 2.48937L35.4593 1.51123Z" fill="#95A5A5"/>
</g>
</g>
</svg>
