<svg width="48" height="48" viewBox="0 0 48 48" fill="none" xmlns="http://www.w3.org/2000/svg">
<g id="Rocket">
<g id="044---Lunar-Lander">
<g id="Group">
<path id="Shape" d="M3.72412 46.6329C3.4534 46.6325 3.19998 46.4997 3.04558 46.2773C2.89117 46.0549 2.85529 45.7711 2.9495 45.5173L5.44798 38.7509C5.54499 38.4662 5.78888 38.2565 6.08497 38.2033C6.38106 38.15 6.68271 38.2617 6.8728 38.4949C7.06289 38.728 7.11148 39.046 6.99971 39.3253L4.50205 46.0916C4.38193 46.4173 4.07129 46.6335 3.72412 46.6329Z" fill="#7F8C8D"/>
<path id="Shape_2" d="M5.99089 40.4971C5.58018 40.4999 5.22959 40.201 5.16732 39.795C5.10506 39.3891 5.34996 38.9988 5.74262 38.8784L14.179 36.2765C14.4617 36.1892 14.7694 36.2594 14.9863 36.4606C15.2031 36.6618 15.2962 36.9634 15.2304 37.2518C15.1646 37.5402 14.95 37.7716 14.6673 37.8588L6.23503 40.4607C6.1559 40.4849 6.07363 40.4972 5.99089 40.4971Z" fill="#7F8C8D"/>
<path id="Shape_3" d="M24 45.5173C23.5429 45.5173 23.1724 45.1468 23.1724 44.6897V41.3793C23.1724 40.9223 23.5429 40.5518 24 40.5518C24.4571 40.5518 24.8276 40.9223 24.8276 41.3793V44.6897C24.8276 45.1468 24.4571 45.5173 24 45.5173Z" fill="#7F8C8D"/>
<path id="Shape_4" d="M44.4695 47.1625C44.1232 47.1625 43.8134 46.9469 43.6932 46.6221L41.1534 39.7415C41.0476 39.4634 41.0992 39.1499 41.2887 38.9204C41.4781 38.6909 41.7762 38.5808 42.0693 38.632C42.3624 38.6832 42.6055 38.8879 42.7059 39.168L45.2458 46.0485C45.3394 46.3024 45.303 46.586 45.1483 46.8081C44.9936 47.0301 44.7401 47.1624 44.4695 47.1625Z" fill="#7F8C8D"/>
<path id="Shape_5" d="M41.4058 40.3109C41.3217 40.3113 41.238 40.299 41.1575 40.2745L33.4494 37.8968C33.0124 37.762 32.7675 37.2985 32.9023 36.8615C33.0372 36.4246 33.5007 36.1797 33.9376 36.3145L41.6458 38.6922C42.0375 38.8124 42.2823 39.2011 42.2214 39.6063C42.1605 40.0115 41.8122 40.3112 41.4025 40.3109H41.4058Z" fill="#7F8C8D"/>
</g>
<path id="Shape_6" d="M0.827586 44.6897H7.44828C7.90534 44.6897 8.27586 45.0602 8.27586 45.5173C8.27586 46.8885 7.16429 48 5.7931 48H2.48276C1.11157 48 0 46.8885 0 45.5173C0 45.0602 0.370523 44.6897 0.827586 44.6897Z" fill="#3F5C6C"/>
<path id="Shape_7" d="M20.6896 44.6897H27.3103C27.7674 44.6897 28.1379 45.0602 28.1379 45.5173C28.1379 46.8885 27.0264 48 25.6552 48H22.3448C20.9736 48 19.8621 46.8885 19.8621 45.5173C19.8621 45.0602 20.2326 44.6897 20.6896 44.6897Z" fill="#3F5C6C"/>
<path id="Shape_8" d="M13.2414 23.9926L10.9903 27.6993L10.8331 31.3076L13.1917 37.4483L13.6634 38.6648C13.9078 39.3026 14.5198 39.7238 15.2028 39.7241H32.7972C33.4802 39.7238 34.0922 39.3026 34.3365 38.6648L34.8083 37.4483L37.1669 31.3159L37.0097 27.6993L34.7586 23.9926H13.2414Z" fill="#E0C097"/>
<path id="Shape_9" d="M45.5172 48H42.2069C40.8357 48 39.7241 46.8884 39.7241 45.5172C39.7241 45.0602 40.0947 44.6897 40.5517 44.6897H47.1724C47.6295 44.6897 48 45.0602 48 45.5172C48 46.8884 46.8884 48 45.5172 48Z" fill="#3F5C6C"/>
<path id="Shape_10" d="M34.7586 24V6.62072L28.9655 2.48279H27.2028H20.7973H19.0345L13.2414 6.62072V24H34.7586Z" fill="#B85C38"/>
<path id="Shape_11" d="M19.7048 19.3241V19.3159C17.4211 17.7073 16.232 14.9541 16.6265 12.1887C17.0211 9.42335 18.9327 7.11262 21.5752 6.20688V6.19861H26.4248V6.20688C29.0673 7.11262 30.9789 9.42335 31.3735 12.1887C31.768 14.9541 30.5789 17.7073 28.2952 19.3159V19.3241H19.7048Z" fill="#547580"/>
<path id="Shape_12" d="M9.10344 16.5518L7.64606 23.8345C7.59632 24.0782 7.6588 24.3313 7.8162 24.5238C7.9736 24.7164 8.20924 24.8279 8.45792 24.8276H12.4138C12.8708 24.8276 13.2414 24.4571 13.2414 24V16.5518H9.10344Z" fill="#3F5C6C"/>
<path id="Shape_13" d="M9.93104 12.4138H12.4138C12.8709 12.4138 13.2414 12.7843 13.2414 13.2414V16.5517H9.10345V13.2414C9.10345 12.7843 9.47398 12.4138 9.93104 12.4138Z" fill="#95A5A5"/>
<path id="Shape_14" d="M38.8965 16.5518L40.3539 23.8345C40.4037 24.0782 40.3412 24.3313 40.1838 24.5238C40.0264 24.7164 39.7907 24.8279 39.5421 24.8276H35.5862C35.1291 24.8276 34.7586 24.4571 34.7586 24V16.5518H38.8965Z" fill="#3F5C6C"/>
<path id="Shape_15" d="M38.8965 16.5518H34.7586V13.2414C34.7586 12.7843 35.1291 12.4138 35.5862 12.4138H38.069C38.526 12.4138 38.8965 12.7843 38.8965 13.2414V16.5518Z" fill="#95A5A5"/>
<path id="Shape_16" d="M19.8621 18.2152L19.7048 19.3159V19.3242L19.0345 24H24H28.9655L28.2952 19.3242V19.3159L28.1379 18.2152H19.8621Z" fill="#7F8C8D"/>
<path id="Shape_17" d="M20.6566 12.6538L21.5752 6.20695V6.19867L21.6579 5.65247H26.3421L26.4248 6.19867V6.20695L27.3435 12.6538H20.6566Z" fill="#95A5A5"/>
<path id="Oval" d="M24 6.62069C25.8283 6.62069 27.3104 5.1386 27.3104 3.31034C27.3104 1.48209 25.8283 0 24 0C22.1718 0 20.6897 1.48209 20.6897 3.31034C20.6897 5.1386 22.1718 6.62069 24 6.62069Z" fill="#7F8C8D"/>
<path id="Oval_2" d="M24 4.13796C24.4571 4.13796 24.8276 3.76744 24.8276 3.31037C24.8276 2.85331 24.4571 2.48279 24 2.48279C23.5429 2.48279 23.1724 2.85331 23.1724 3.31037C23.1724 3.76744 23.5429 4.13796 24 4.13796Z" fill="#95A5A5"/>
<path id="Oval_3" d="M7.44828 6.62069C9.27654 6.62069 10.7586 5.1386 10.7586 3.31034C10.7586 1.48209 9.27654 0 7.44828 0C5.62003 0 4.13794 1.48209 4.13794 3.31034C4.13794 5.1386 5.62003 6.62069 7.44828 6.62069Z" fill="#7F8C8D"/>
<path id="Oval_4" d="M7.44828 4.13796C7.90535 4.13796 8.27587 3.76744 8.27587 3.31037C8.27587 2.85331 7.90535 2.48279 7.44828 2.48279C6.99122 2.48279 6.6207 2.85331 6.6207 3.31037C6.6207 3.76744 6.99122 4.13796 7.44828 4.13796Z" fill="#95A5A5"/>
<path id="Rectangle-path" d="M26.4827 12.4138H21.5172C20.6031 12.4138 19.8621 13.1549 19.8621 14.069V19.0345C19.8621 19.9486 20.6031 20.6897 21.5172 20.6897H26.4827C27.3969 20.6897 28.1379 19.9486 28.1379 19.0345V14.069C28.1379 13.1549 27.3969 12.4138 26.4827 12.4138Z" fill="#BDC3C7"/>
<path id="Shape_18" d="M17.3793 24H30.6207V25.6552C30.6207 26.5693 29.8796 27.3103 28.9655 27.3103H19.0345C18.1203 27.3103 17.3793 26.5693 17.3793 25.6552V24Z" fill="#BDC3C7"/>
<path id="Shape_19" d="M13.2414 6.62072L10.6759 4.0552L10.651 2.48279H19.0345L13.2414 6.62072Z" fill="#D25627"/>
<path id="Shape_20" d="M23.1724 18.207C22.7153 18.207 22.3448 17.8364 22.3448 17.3794V15.7242C22.3448 15.2671 22.7153 14.8966 23.1724 14.8966C23.6295 14.8966 24 15.2671 24 15.7242V17.3794C24 17.8364 23.6295 18.207 23.1724 18.207Z" fill="#95A5A5"/>
<path id="Rectangle-path_2" d="M18.2069 30.6207H16.5517C16.0946 30.6207 15.7241 30.9913 15.7241 31.4483V34.7587C15.7241 35.2157 16.0946 35.5862 16.5517 35.5862H18.2069C18.6639 35.5862 19.0345 35.2157 19.0345 34.7587V31.4483C19.0345 30.9913 18.6639 30.6207 18.2069 30.6207Z" fill="#ECF0F1"/>
<path id="Shape_21" d="M6.27227 40.5517C5.73084 40.5523 5.22336 40.288 4.9134 39.8441C4.60343 39.4002 4.53017 38.8327 4.71723 38.3246L8.37599 28.3936C8.56828 27.8227 9.05554 27.4014 9.64821 27.2935C10.2409 27.1856 10.8453 27.4083 11.2264 27.8748C11.6075 28.3414 11.7051 28.9781 11.4811 29.5373L7.82316 39.4684C7.58383 40.1184 6.96499 40.5507 6.27227 40.5517Z" fill="#BDC3C7"/>
<path id="Shape_22" d="M24 41.3793C23.0859 41.3793 22.3448 40.6382 22.3448 39.7241V28.9655C22.3448 28.0513 23.0859 27.3103 24 27.3103C24.9141 27.3103 25.6552 28.0513 25.6552 28.9655V39.7241C25.6552 40.6382 24.9141 41.3793 24 41.3793Z" fill="#BDC3C7"/>
<path id="Shape_23" d="M41.7277 40.5517C42.2691 40.5523 42.7766 40.288 43.0866 39.8441C43.3966 39.4002 43.4698 38.8327 43.2827 38.3246L39.624 28.3936C39.4317 27.8227 38.9444 27.4014 38.3518 27.2935C37.7591 27.1856 37.1546 27.4083 36.7735 27.8748C36.3924 28.3414 36.2949 28.9781 36.5189 29.5373L40.1768 39.4684C40.4162 40.1184 41.035 40.5507 41.7277 40.5517Z" fill="#BDC3C7"/>
</g>
</g>
</svg>
